<?xml version="1.0" encoding="utf-8"?>
<svg version="1.0" xmlns="http://www.w3.org/2000/svg" width="500.000000pt" height="500.000000pt" viewBox="38.835 148.544 479.369 182.403" preserveAspectRatio="none" xmlns:bx="https://boxy-svg.com"><defs><bx:export><bx:file format="svg" units="pt"/></bx:export></defs><g transform="translate(0.000000,500.000000) scale(0.100000,-0.100000)" fill="#000000" stroke="none"><path d="M950 3025 c0 -18 5 -25 20 -25 18 0 20 -7 20 -54 0 -45 -3 -54 -20 -59 -17 -4 -20 -14 -20 -55 0 -28 5 -54 10 -57 6 -3 10 -52 10 -110 0 -58 -4 -107 -10 -110 -5 -3 -10 -17 -10 -31 l0 -24 280 0 280 0 0 144 c0 86 -4 147 -10 151 -14 8 -13 165 1 165 6 0 9 12 7 28 l-3 27 -107 3 c-87 2 -108 6 -108 17 0 13 -27 15 -170 15 l-170 0 0 -25z m248 -2 c-43 -2 -113 -2 -155 0 -43 1 -8 3 77 3 85 0 120 -2 78 -3z m-30 -80 c-1 -50 -2 -52 -5 -15 l-4 42 -65 0 -64 0 0 -40 c0 -22 -4 -40 -10 -40 -5 0 -10 25 -10 55 l0 55 80 0 80 0 -2 -57z m322 47 c0 -6 -53 -10 -140 -10 l-140 0 0 -230 c0 -147 -4 -230 -10 -230 -6 0 -10 87 -10 240 l0 240 150 0 c93 0 150 -4 150 -10z m-20 -110 l0 -80 -120 0 -120 0 0 80 0 80 120 0 120 0 0 -80z m-390 40 c0 -20 -5 -30 -15 -30 -10 0 -15 10 -15 30 0 20 5 30 15 30 10 0 15 -10 15 -30z m60 0 c0 -23 -4 -30 -20 -30 -16 0 -20 7 -20 30 0 23 4 30 20 30 16 0 20 -7 20 -30z m-150 -70 c0 -11 -4 -20 -10 -20 -5 0 -10 9 -10 20 0 11 5 20 10 20 6 0 10 -9 10 -20z m40 0 c0 -11 -4 -20 -10 -20 -5 0 -10 9 -10 20 0 11 5 20 10 20 6 0 10 -9 10 -20z m27 -12 c-3 -7 -5 -2 -5 12 0 14 2 19 5 13 2 -7 2 -19 0 -25z m43 12 c0 -11 -4 -20 -10 -20 -5 0 -10 9 -10 20 0 11 5 20 10 20 6 0 10 -9 10 -20z m40 0 c0 -11 -4 -20 -10 -20 -5 0 -10 9 -10 20 0 11 5 20 10 20 6 0 10 -9 10 -20z m27 -12 c-3 -7 -5 -2 -5 12 0 14 2 19 5 13 2 -7 2 -19 0 -25z m-44 -35 c-29 -2 -77 -2 -105 0 -29 2 -6 3 52 3 58 0 81 -1 53 -3z m350 -32 c15 -1 17 -14 17 -126 0 -77 -4 -125 -10 -125 -6 0 -10 47 -10 120 l0 120 -110 0 -110 0 0 -120 c0 -73 -4 -120 -10 -120 -6 0 -10 48 -10 124 l0 125 38 3 c31 2 128 2 205 -1z m-303 -106 c0 -87 -3 -105 -15 -105 -12 0 -15 16 -15 80 l0 80 -55 0 -55 0 0 -78 c0 -83 -3 -94 -26 -85 -11 4 -14 29 -14 109 l0 104 90 0 90 0 0 -105z m280 -35 l0 -110 -90 0 -90 0 0 110 0 110 90 0 90 0 0 -110z m-342 63 c-10 -2 -28 -2 -40 0 -13 2 -5 4 17 4 22 1 32 -1 23 -4z m-38 -83 c0 -27 -4 -50 -10 -50 -5 0 -10 23 -10 50 0 28 5 50 10 50 6 0 10 -22 10 -50z m50 0 c0 -38 -4 -50 -15 -50 -11 0 -15 12 -15 50 0 38 4 50 15 50 11 0 15 -12 15 -50z m50 -80 c0 -6 -40 -10 -100 -10 -60 0 -100 4 -100 10 0 6 40 10 100 10 60 0 100 -4 100 -10z"/><path d="M1250 2875 l0 -65 30 0 30 0 0 65 0 65 -30 0 -30 0 0 -65z m40 0 c0 -25 -4 -45 -10 -45 -5 0 -10 20 -10 45 0 25 5 45 10 45 6 0 10 -20 10 -45z"/><path d="M1390 2875 l0 -65 30 0 30 0 0 65 0 65 -30 0 -30 0 0 -65z m40 -1 c0 -59 -24 -55 -28 4 -2 33 0 42 12 42 12 0 16 -11 16 -46z"/><path d="M1010 2750 c0 -5 5 -10 10 -10 6 0 10 5 10 10 0 6 -4 10 -10 10 -5 0 -10 -4 -10 -10z"/><path d="M1080 2750 c0 -5 5 -10 10 -10 6 0 10 5 10 10 0 6 -4 10 -10 10 -5 0 -10 -4 -10 -10z"/><path d="M1120 2750 c0 -5 5 -10 10 -10 6 0 10 5 10 10 0 6 -4 10 -10 10 -5 0 -10 -4 -10 -10z"/><path d="M1290 2710 c0 -5 5 -10 10 -10 6 0 10 5 10 10 0 6 -4 10 -10 10 -5 0 -10 -4 -10 -10z"/><path d="M1330 2710 c0 -5 5 -10 10 -10 6 0 10 5 10 10 0 6 -4 10 -10 10 -5 0 -10 -4 -10 -10z"/><path d="M1370 2709 c0 -5 5 -7 10 -4 6 3 10 8 10 11 0 2 -4 4 -10 4 -5 0 -10 -5 -10 -11z"/><path d="M1405 2710 c3 -5 10 -10 16 -10 5 0 9 5 9 10 0 6 -7 10 -16 10 -8 0 -12 -4 -9 -10z"/><path d="M1408 2673 c7 -3 16 -2 19 1 4 3 -2 6 -13 5 -11 0 -14 -3 -6 -6z"/><path d="M1290 2640 c0 -5 5 -10 10 -10 6 0 10 5 10 10 0 6 -4 10 -10 10 -5 0 -10 -4 -10 -10z"/><path d="M1330 2640 c0 -5 5 -10 10 -10 6 0 10 5 10 10 0 6 -4 10 -10 10 -5 0 -10 -4 -10 -10z"/><path d="M1370 2640 c0 -5 5 -10 11 -10 5 0 7 5 4 10 -3 6 -8 10 -11 10 -2 0 -4 -4 -4 -10z"/><path d="M1405 2640 c-3 -5 1 -10 9 -10 9 0 16 5 16 10 0 6 -4 10 -9 10 -6 0 -13 -4 -16 -10z"/><path d="M1290 2600 c0 -5 5 -10 10 -10 6 0 10 5 10 10 0 6 -4 10 -10 10 -5 0 -10 -4 -10 -10z"/><path d="M1330 2600 c0 -5 5 -10 10 -10 6 0 10 5 10 10 0 6 -4 10 -10 10 -5 0 -10 -4 -10 -10z"/><path d="M1370 2600 c0 -5 5 -10 10 -10 6 0 10 5 10 10 0 6 -4 10 -10 10 -5 0 -10 -4 -10 -10z"/><path d="M1405 2600 c3 -5 10 -10 16 -10 5 0 9 5 9 10 0 6 -7 10 -16 10 -8 0 -12 -4 -9 -10z"/><path d="M1910 2784 c-30 -64 -60 -123 -68 -130 -11 -12 -8 -14 25 -13 21 1 30 3 20 6 -13 3 -16 10 -12 21 4 10 12 29 17 45 9 23 16 27 48 27 44 0 45 -1 54 -52 5 -30 3 -37 -11 -41 -10 -3 5 -5 32 -5 28 0 43 2 34 5 -12 3 -25 36 -44 116 -15 62 -31 118 -34 125 -4 7 -29 -36 -61 -104z m66 -31 c-2 -3 -17 -3 -34 -1 l-29 3 20 45 20 45 13 -44 c8 -25 12 -46 10 -48z"/><path d="M2590 2778 c-30 -66 -62 -124 -70 -128 -11 -7 -3 -9 25 -9 32 0 36 2 23 10 -17 9 -17 12 2 49 18 35 25 40 55 40 39 0 41 -2 50 -52 6 -30 4 -37 -12 -41 -10 -3 5 -5 32 -6 36 0 45 2 34 9 -11 6 -27 51 -44 122 -15 62 -30 116 -34 120 -3 3 -31 -48 -61 -114z m65 5 c6 -32 5 -33 -24 -33 -36 0 -37 6 -14 55 18 38 26 34 38 -22z"/><path d="M3482 2880 c-66 -40 -84 -155 -34 -210 47 -52 142 -40 181 24 78 125 -28 258 -147 186z m113 -14 c68 -68 22 -216 -66 -216 -56 0 -86 54 -76 138 9 85 90 130 142 78z"/><path d="M4273 2885 c-39 -27 -31 -71 22 -118 48 -43 59 -83 31 -106 -24 -20 -69 -9 -83 19 -13 25 -13 25 -13 -11 l0 -35 55 6 c38 4 60 12 70 26 26 35 18 63 -35 117 -27 28 -50 54 -50 58 0 44 67 56 95 17 l16 -23 -3 29 c-3 26 -7 30 -43 33 -25 2 -48 -2 -62 -12z"/><path d="M1626 2874 c-13 -33 -5 -49 10 -21 12 22 22 27 51 27 l36 0 -6 -82 c-4 -46 -7 -96 -7 -111 0 -19 -7 -30 -22 -37 -18 -7 -11 -9 32 -9 41 0 49 3 34 9 -20 8 -21 14 -17 77 2 37 6 87 9 111 5 41 6 42 44 42 35 0 39 -3 42 -27 3 -27 4 -27 9 5 l6 32 -108 0 c-88 0 -108 -3 -113 -16z"/><path d="M2091 2883 c28 -7 69 -108 69 -169 0 -47 -3 -56 -22 -64 -18 -7 -11 -9 32 -9 36 0 48 3 35 8 -16 6 -19 16 -16 61 2 43 10 65 42 111 21 31 44 59 51 62 7 3 -5 6 -27 6 -27 0 -35 -2 -26 -8 12 -7 9 -18 -14 -57 l-28 -47 -24 48 c-20 38 -22 49 -11 56 8 6 -4 8 -32 8 -25 -1 -38 -3 -29 -6z"/><path d="M2333 2883 c16 -4 17 -14 11 -111 -5 -80 -10 -110 -22 -119 -13 -11 0 -13 71 -13 66 0 87 3 87 14 0 10 -11 11 -52 5 -28 -5 -55 -6 -60 -3 -4 3 -5 51 -2 107 5 75 11 105 22 115 13 10 9 12 -29 11 -24 -1 -36 -3 -26 -6z"/><path d="M2785 2883 c11 -3 22 -9 25 -14 3 -5 2 -52 -3 -106 -6 -71 -13 -101 -25 -110 -13 -11 -10 -13 24 -12 21 1 31 3 21 6 -16 4 -17 14 -11 96 4 51 9 94 11 97 3 3 10 -2 16 -11 7 -9 41 -57 77 -105 l64 -89 7 33 c4 18 10 71 14 118 5 62 11 86 23 94 13 7 7 9 -23 9 -22 -1 -32 -3 -22 -6 17 -4 18 -13 12 -91 -4 -48 -10 -90 -14 -95 -4 -4 -38 38 -77 93 -66 94 -71 99 -104 99 -21 -1 -27 -3 -15 -6z"/><path d="M3154 2883 c17 -5 18 -13 11 -111 -5 -81 -11 -110 -23 -119 -13 -11 -8 -13 34 -12 41 0 45 2 25 10 -18 7 -22 14 -17 32 3 12 6 37 6 55 l0 32 65 0 65 0 0 -37 c0 -54 -9 -81 -29 -86 -9 -3 7 -5 34 -5 28 0 42 2 32 5 -17 4 -18 14 -12 111 5 80 11 110 23 120 13 10 9 12 -29 11 -24 -1 -36 -3 -26 -6 11 -3 17 -14 17 -33 0 -55 -7 -60 -77 -60 l-65 0 6 31 c3 17 6 37 6 45 0 7 8 15 18 17 9 3 -5 5 -33 5 -27 0 -42 -2 -31 -5z"/><path d="M3718 2883 c25 -5 26 -17 13 -147 -5 -48 -14 -82 -22 -87 -9 -6 0 -8 26 -8 22 1 32 3 23 6 -15 4 -18 15 -17 66 1 34 4 76 8 92 6 27 10 20 40 -67 18 -54 36 -98 39 -98 4 0 28 46 55 102 26 56 48 99 50 97 1 -2 1 -44 -1 -92 -3 -80 -6 -89 -25 -97 -17 -7 -10 -9 28 -8 28 0 42 2 32 5 -16 4 -17 14 -11 111 5 80 10 110 22 120 14 10 13 12 -9 12 -21 0 -32 -14 -78 -107 l-54 -108 -36 105 -36 105 -35 2 c-19 0 -25 -1 -12 -4z"/><path d="M4043 2883 c16 -4 18 -12 13 -51 -3 -26 -8 -77 -12 -114 -5 -50 -10 -68 -23 -72 -9 -2 25 -3 74 -3 88 2 90 2 92 27 1 14 0 18 -3 8 -4 -14 -17 -18 -60 -18 l-55 0 3 58 3 57 45 1 c40 0 45 3 47 25 1 14 0 17 -3 7 -4 -13 -16 -18 -45 -18 l-39 0 0 45 0 45 50 0 c36 0 52 -5 59 -17 9 -16 10 -16 11 5 0 21 -3 22 -87 21 -49 -1 -80 -3 -70 -6z"/><path d="M1230 2369 c0 -12 2754 -8 2766 4 4 4 -617 7 -1379 7 -975 0 -1387 -3 -1387 -11z"/><path d="M4010 2370 c0 -5 6 -10 14 -10 8 0 18 5 21 10 3 6 -3 10 -14 10 -12 0 -21 -4 -21 -10z"/></g></svg>