<?xml version="1.0" standalone="no"?>
<!DOCTYPE svg PUBLIC "-//W3C//DTD SVG 20010904//EN"
 "http://www.w3.org/TR/2001/REC-SVG-20010904/DTD/svg10.dtd">
<svg version="1.0" xmlns="http://www.w3.org/2000/svg"
 width="1080.000000pt" height="1080.000000pt" viewBox="0 0 1080.000000 1080.000000"
 preserveAspectRatio="xMidYMid meet">

<g transform="translate(0.000000,1080.000000) scale(0.100000,-0.100000)"
fill="#000000" stroke="none">
<path d="M4072 6440 c5 -120 16 -138 99 -151 83 -13 91 -26 99 -171 9 -148 -2
-303 -23 -345 -11 -21 -33 -38 -77 -56 -51 -22 -64 -33 -77 -64 -38 -93 -25
-395 22 -487 43 -83 50 -160 50 -571 0 -414 -8 -503 -50 -565 -32 -48 -45
-102 -45 -192 l0 -78 1426 0 1426 0 -5 633 c-5 660 -12 794 -47 855 -35 59
-45 153 -45 417 0 301 11 383 57 423 l30 27 -5 119 c-3 65 -9 122 -14 126 -4
4 -206 12 -448 18 -548 14 -623 25 -646 91 -22 63 -134 70 -1033 71 l-698 0 4
-100z m1283 -31 c-59 -12 -818 -11 -810 1 4 6 156 10 428 9 251 -1 406 -5 382
-10z m-168 -261 c-4 -79 -7 -185 -7 -235 0 -51 -4 -93 -8 -93 -5 0 -14 69 -21
153 -7 83 -15 155 -18 160 -2 4 -150 7 -327 7 l-323 0 -6 -167 c-5 -167 -15
-226 -43 -237 -36 -14 -54 100 -54 351 l0 203 407 0 406 0 -6 -142z m1475 123
c58 -6 119 -16 135 -22 24 -9 26 -12 11 -20 -45 -25 -193 -32 -785 -36 l-623
-5 0 -576 c0 -318 -2 -662 -5 -767 -3 -104 -7 -314 -10 -465 -6 -360 -25 -551
-48 -513 -16 25 -28 226 -37 587 -11 465 -13 1819 -2 1830 11 12 1239 0 1364
-13z m58 -591 l0 -400 -610 0 -610 0 0 400 0 400 610 0 610 0 0 -400z m-2008
310 c12 -24 18 -59 18 -108 0 -88 -19 -139 -54 -148 -64 -16 -91 29 -91 151 0
115 17 148 73 143 31 -2 40 -9 54 -38z m288 30 c36 -19 52 -141 29 -223 -14
-51 -47 -71 -105 -64 -71 8 -78 21 -82 140 -3 92 -2 105 18 130 18 23 29 27
71 27 28 0 59 -5 69 -10z m-744 -415 c33 -51 12 -175 -31 -175 -25 0 -49 49
-49 100 0 51 24 100 49 100 8 0 22 -11 31 -25z m191 17 c32 -21 42 -102 18
-158 -28 -68 -85 -26 -85 64 0 71 32 116 67 94z m368 -16 c34 -51 12 -176 -30
-176 -44 0 -66 121 -32 173 22 33 42 34 62 3z m199 9 c47 -48 22 -193 -32
-183 -39 8 -56 112 -27 168 17 33 36 38 59 15z m-394 -85 c0 -66 -11 -97 -24
-64 -3 9 -6 37 -6 64 0 27 3 55 6 64 13 33 24 2 24 -64z m560 0 c0 -66 -11
-97 -24 -64 -3 9 -6 37 -6 64 0 27 3 55 6 64 13 33 24 2 24 -64z m-200 -229
c0 -4 -66 -11 -147 -14 -170 -6 -464 3 -418 14 44 10 565 10 565 0z m1789
-185 c35 -32 43 -106 48 -471 7 -450 -14 -785 -48 -785 -33 0 -49 237 -49 768
l0 442 -559 0 -559 0 -5 -502 c-3 -277 -11 -541 -16 -586 -12 -88 -27 -130
-41 -116 -25 25 -32 156 -37 691 l-5 561 64 6 c34 3 79 8 98 10 19 2 272 3
562 2 492 -2 528 -3 547 -20z m-1579 -408 c0 -403 -8 -561 -32 -612 -24 -53
-79 -41 -99 22 -8 25 -14 153 -16 395 l-5 357 -278 0 -278 0 -5 -362 c-5 -383
-11 -437 -51 -463 -17 -11 -30 -12 -59 -4 -78 21 -87 81 -87 642 l0 437 455 0
455 0 0 -412z m1430 -293 l0 -555 -460 0 -460 0 0 555 0 555 460 0 460 0 0
-555z m-1742 336 c23 -14 -12 -21 -106 -21 -117 0 -161 13 -72 21 105 9 164 9
178 0z m-216 -229 c9 -25 13 -92 13 -212 0 -147 -3 -181 -18 -215 l-18 -40
-18 22 c-50 61 -53 397 -5 471 18 28 29 22 46 -26z m237 27 c22 -24 28 -51 37
-179 8 -133 -9 -257 -40 -289 -28 -28 -63 -24 -84 10 -31 49 -38 346 -10 419
23 60 62 76 97 39z m101 -599 c370 -33 168 -90 -320 -90 -201 0 -406 13 -465
28 -39 11 -39 34 0 44 100 25 574 36 785 18z"/>
<path d="M5600 5660 l0 -330 150 0 150 0 0 330 0 330 -150 0 -150 0 0 -330z
m180 184 c22 -42 22 -336 0 -379 -36 -71 -68 -10 -77 146 -3 56 -1 124 6 164
19 110 40 130 71 69z"/>
<path d="M6317 5984 c-4 -4 -7 -153 -7 -331 l0 -323 155 0 155 0 -2 328 -3
327 -146 3 c-80 1 -148 -1 -152 -4z m153 -114 c29 -16 40 -73 39 -210 -1 -133
-13 -196 -42 -214 -27 -16 -62 30 -78 101 -18 81 -18 295 0 316 15 19 53 22
81 7z"/>
<path d="M4392 5058 c-18 -18 -15 -52 6 -71 25 -22 45 -21 67 3 27 30 10 74
-30 78 -17 2 -36 -3 -43 -10z"/>
<path d="M4745 5046 c-28 -43 18 -91 63 -67 26 14 33 45 15 70 -19 29 -59 27
-78 -3z"/>
<path d="M4952 5058 c-18 -18 -15 -52 6 -71 25 -22 45 -21 67 3 27 30 10 74
-30 78 -17 2 -36 -3 -43 -10z"/>
<path d="M5814 4849 c-17 -19 -17 -23 -3 -47 27 -49 89 -37 89 17 0 51 -51 69
-86 30z"/>
<path d="M6022 4858 c-15 -15 -16 -60 0 -76 18 -18 53 -14 73 8 27 30 10 74
-30 78 -17 2 -36 -3 -43 -10z"/>
<path d="M6226 4851 c-23 -25 -17 -55 10 -59 29 -4 79 40 71 61 -9 23 -60 22
-81 -2z"/>
<path d="M6390 4855 c-28 -34 59 -103 98 -79 24 16 28 65 6 81 -25 18 -89 16
-104 -2z"/>
<path d="M6403 4663 c-32 -6 -29 -19 7 -32 36 -12 90 -4 90 14 0 20 -43 28
-97 18z"/>
<path d="M5820 4500 c-25 -25 -25 -42 -2 -63 22 -20 53 -22 70 -5 19 19 15 66
-7 78 -28 14 -38 13 -61 -10z"/>
<path d="M6026 4507 c-22 -16 -18 -65 5 -80 23 -14 67 0 74 24 8 25 -19 69
-43 69 -10 0 -26 -6 -36 -13z"/>
<path d="M6216 4504 c-17 -44 7 -84 50 -84 33 0 32 39 -2 74 -31 30 -40 32
-48 10z"/>
<path d="M6428 4504 c-63 -34 -56 -84 12 -84 41 0 70 24 70 56 0 42 -35 54
-82 28z"/>
<path d="M5833 4309 c-40 -15 -41 -63 -2 -87 40 -25 89 34 61 74 -11 17 -35
22 -59 13z"/>
<path d="M6031 4303 c-29 -19 -27 -59 3 -78 43 -28 91 18 67 63 -14 26 -45 33
-70 15z"/>
<path d="M6230 4302 c-47 -38 5 -111 56 -77 31 20 32 59 2 79 -28 20 -31 20
-58 -2z"/>
<path d="M6410 4313 c-35 -13 -37 -35 -7 -64 33 -31 64 -41 87 -27 40 26 29
68 -23 88 -31 11 -35 11 -57 3z"/>
</g>
</svg>
