<?xml version="1.0" standalone="no"?>
<!DOCTYPE svg PUBLIC "-//W3C//DTD SVG 20010904//EN"
 "http://www.w3.org/TR/2001/REC-SVG-20010904/DTD/svg10.dtd">
<svg version="1.0" xmlns="http://www.w3.org/2000/svg"
 width="1080.000000pt" height="1080.000000pt" viewBox="0 0 1080.000000 1080.000000"
 preserveAspectRatio="xMidYMid meet">

<g transform="translate(0.000000,1080.000000) scale(0.100000,-0.100000)"
fill="#000000" stroke="none">
<path d="M1350 9257 c0 -283 13 -359 74 -425 41 -46 93 -64 213 -73 134 -10
172 -24 212 -79 63 -88 87 -330 78 -805 -11 -560 -51 -665 -280 -741 -110 -36
-148 -56 -185 -99 -46 -52 -62 -88 -84 -189 -26 -120 -36 -544 -19 -762 22
-269 75 -508 122 -550 87 -77 128 -421 151 -1238 15 -571 -6 -1284 -48 -1596
-31 -232 -52 -308 -105 -365 -95 -103 -129 -247 -129 -557 l0 -218 4055 0
4055 0 0 1238 c0 1509 -12 2073 -55 2557 -26 291 -53 416 -100 465 -76 81
-121 432 -132 1040 -8 467 16 869 68 1123 27 136 49 180 98 199 22 9 47 28 56
42 26 39 45 131 45 218 0 75 -46 517 -55 526 -2 2 -388 15 -857 28 -1407 38
-1681 51 -1948 95 -208 35 -292 79 -305 162 -9 56 -28 83 -75 107 -196 100
-727 120 -3272 120 l-1578 0 0 -223z m3770 -145 l75 -8 -65 -7 c-370 -41
-2728 -32 -2686 10 20 20 2474 24 2676 5z m-587 -359 c2 -5 0 -102 -4 -218 -5
-115 -15 -421 -23 -678 -19 -580 -28 -617 -61 -251 -35 389 -66 700 -70 712
-3 9 -199 12 -935 12 l-930 0 0 -332 c0 -446 -19 -634 -77 -756 -71 -151 -141
-48 -190 283 -12 88 -17 224 -20 673 l-5 562 1156 0 c635 0 1157 -3 1159 -7z
m3612 -12 c624 -26 949 -63 1007 -112 23 -19 23 -19 3 -34 -56 -43 -269 -72
-750 -102 -197 -11 -574 -16 -1766 -20 l-1516 -5 -6 -2276 c-3 -1253 -11
-2464 -16 -2692 -28 -1109 -70 -1645 -131 -1645 -52 0 -79 282 -121 1305 -8
170 -13 1226 -16 2934 l-5 2668 1534 -5 c843 -3 1646 -10 1783 -16z m735
-1711 l0 -1150 -1735 0 -1735 0 0 1150 0 1150 1735 0 1735 0 0 -1150z m-5807
996 c103 -37 145 -141 154 -382 6 -174 -10 -285 -55 -369 -44 -81 -120 -117
-201 -95 -125 33 -178 180 -168 470 3 126 9 168 27 222 27 81 70 134 125 153
50 18 70 18 118 1z m872 -7 c57 -16 108 -73 129 -145 23 -77 33 -348 17 -454
-29 -186 -98 -244 -286 -244 -138 1 -215 45 -250 143 -42 120 -45 425 -5 553
24 78 72 133 129 147 20 5 45 12 56 15 30 8 165 -1 210 -15z m-2089 -1174
c105 -112 89 -450 -25 -518 -41 -24 -65 -21 -105 14 -57 50 -80 123 -81 259 0
104 2 120 27 172 37 79 68 108 114 108 29 0 44 -7 70 -35z m579 1 c48 -51 70
-131 69 -256 -1 -83 -6 -117 -23 -162 -25 -64 -78 -118 -116 -118 -38 0 -91
54 -117 118 -18 47 -22 77 -23 172 0 104 2 120 27 172 37 79 68 108 114 108
29 0 44 -7 69 -34z m1008 7 c14 -16 36 -50 49 -78 20 -43 23 -66 23 -170 0
-140 -17 -205 -70 -260 -45 -48 -85 -48 -131 0 -51 55 -76 133 -78 245 -1 115
20 190 71 250 44 51 94 56 136 13z m579 0 c58 -62 84 -166 75 -296 -7 -101
-29 -167 -72 -212 -64 -68 -138 -32 -185 90 -19 48 -23 80 -24 160 -1 119 19
189 71 246 45 50 95 54 135 12z m-1124 -70 c13 -30 16 -70 17 -178 0 -121 -3
-145 -20 -179 -46 -92 -60 -50 -60 179 0 167 8 215 36 215 5 0 18 -17 27 -37z
m1589 10 c27 -40 27 -332 0 -380 -21 -39 -32 -41 -49 -10 -9 15 -13 72 -13
192 1 211 18 266 62 198z m-568 -840 c51 -3 88 -9 84 -14 -49 -46 -1659 -47
-1823 -1 -16 4 11 9 75 12 145 9 1555 11 1664 3z m4711 -482 c355 -13 361 -14
403 -54 66 -63 96 -191 118 -518 18 -258 19 -1950 1 -2254 -35 -604 -85 -861
-151 -781 -20 24 -49 158 -65 306 -43 393 -56 861 -56 2128 l0 1002 -1590 0
-1590 0 0 -802 c-1 -1712 -34 -2432 -118 -2608 -64 -134 -112 67 -153 640 -8
109 -13 627 -16 1531 l-4 1367 53 6 c91 10 559 46 653 50 190 7 2244 -3 2515
-13z m-4090 -878 c-1 -1511 -22 -1940 -102 -2085 -33 -59 -82 -91 -132 -85
-108 15 -158 130 -187 427 -6 68 -13 474 -16 998 l-5 882 -794 0 -794 0 0
-742 c-1 -1132 -17 -1408 -93 -1557 -44 -88 -108 -108 -229 -71 -114 34 -152
81 -188 233 -57 241 -70 574 -70 1835 l0 1012 1305 0 1305 0 0 -847z m4050
-1163 l0 -1580 -1305 0 -1305 0 0 1580 0 1580 1305 0 1305 0 0 -1580z m-4932
954 c34 -10 26 -32 -15 -45 -65 -20 -432 -23 -551 -5 -114 17 -129 23 -113 39
22 22 608 31 679 11z m-689 -534 c40 -21 79 -157 102 -360 16 -139 16 -568 0
-695 -54 -432 -161 -495 -231 -135 -32 163 -43 336 -37 573 7 291 42 499 99
595 20 33 37 39 67 22z m707 -10 c103 -65 142 -300 131 -804 -7 -284 -19 -388
-56 -488 -37 -97 -112 -142 -199 -119 -75 21 -120 95 -149 252 -26 138 -26
789 0 927 33 177 90 252 191 252 31 0 60 -7 82 -20z m184 -1725 c434 -26 652
-64 673 -119 19 -49 -165 -92 -518 -121 -258 -22 -1220 -32 -1565 -16 -485 22
-770 64 -805 120 -12 21 23 48 84 65 115 32 443 66 761 79 247 11 1154 5 1370
-8z"/>
<path d="M5700 6955 l0 -935 430 0 430 0 0 935 0 935 -430 0 -430 0 0 -935z
m487 600 c30 -53 59 -183 74 -323 16 -152 7 -557 -15 -673 -51 -272 -135 -328
-196 -131 -85 274 -84 798 1 1059 39 121 92 147 136 68z"/>
<path d="M7720 6955 l0 -935 435 0 435 0 0 935 0 935 -435 0 -435 0 0 -935z
m451 622 c45 -31 86 -114 106 -217 25 -130 25 -641 0 -763 -25 -121 -54 -196
-93 -234 -40 -41 -64 -41 -109 -2 -105 93 -171 379 -182 794 -9 369 21 445
178 445 52 0 73 -5 100 -23z"/>
<path d="M2300 5282 c-101 -50 -105 -173 -8 -245 35 -26 103 -27 146 -1 44 25
76 94 68 142 -11 67 -74 122 -141 122 -16 0 -46 -8 -65 -18z"/>
<path d="M3313 5285 c-36 -15 -70 -63 -79 -112 -15 -77 85 -171 166 -157 102
18 153 141 95 230 -32 49 -117 67 -182 39z"/>
<path d="M3894 5286 c-38 -17 -73 -65 -81 -110 -7 -44 20 -99 64 -133 69 -53
177 -25 209 53 54 128 -65 245 -192 190z"/>
<path d="M8015 4719 c-95 -23 -113 -94 -44 -173 82 -93 193 -130 262 -87 41
25 67 74 67 126 0 91 -156 164 -285 134z"/>
<path d="M6343 4700 c-67 -41 -85 -134 -38 -196 48 -62 114 -80 181 -48 48 23
74 70 74 134 0 48 -4 56 -39 91 -35 36 -43 39 -92 39 -36 0 -65 -7 -86 -20z"/>
<path d="M6923 4700 c-45 -27 -65 -62 -65 -115 -2 -82 72 -150 153 -143 86 9
135 71 126 161 -4 42 -10 56 -41 84 -31 29 -43 33 -88 33 -35 0 -64 -7 -85
-20z"/>
<path d="M7490 4684 c-84 -79 -71 -194 22 -194 38 0 124 48 162 90 77 86 54
132 -68 138 l-75 4 -41 -38z"/>
<path d="M7994 4130 c-95 -14 -100 -39 -16 -78 98 -46 244 -35 291 22 42 50
-109 80 -275 56z"/>
<path d="M6365 3706 c-86 -37 -114 -141 -59 -214 87 -114 254 -60 254 82 0 64
-23 104 -73 127 -49 22 -81 23 -122 5z"/>
<path d="M6945 3706 c-98 -44 -119 -165 -40 -235 41 -36 73 -46 120 -38 70 11
115 69 115 147 0 55 -25 96 -75 120 -48 23 -78 25 -120 6z"/>
<path d="M7461 3689 c-70 -116 2 -259 130 -259 37 0 79 40 79 75 0 56 -79 168
-142 201 -38 20 -46 18 -67 -17z"/>
<path d="M8103 3706 c-126 -40 -214 -175 -153 -236 29 -29 63 -40 125 -40 118
0 225 70 225 148 0 50 -29 102 -71 124 -39 21 -68 22 -126 4z"/>
<path d="M6342 3119 c-87 -56 -84 -188 6 -241 43 -25 122 -24 156 3 37 29 56
71 56 121 0 55 -17 87 -59 115 -44 30 -113 31 -159 2z"/>
<path d="M6923 3120 c-39 -23 -66 -72 -66 -120 0 -81 61 -140 146 -140 82 0
137 56 137 140 0 83 -57 140 -140 140 -27 0 -58 -8 -77 -20z"/>
<path d="M7505 3121 c-68 -41 -88 -112 -53 -181 71 -138 268 -94 268 60 0 83
-57 140 -140 140 -26 0 -58 -8 -75 -19z"/>
<path d="M7970 3118 c-65 -44 -48 -128 40 -198 136 -107 290 -66 290 78 0 82
-76 133 -210 140 -77 3 -88 2 -120 -20z"/>
</g>
</svg>
